<svg width="411" height="410" viewBox="0 0 411 410" fill="none" xmlns="http://www.w3.org/2000/svg">
<rect x="16" width="380" height="380" rx="190" fill="#484D7C"/>
<path d="M206.076 324.908C193 324.908 180.141 319.599 170.922 310.464C161.703 301.329 156.452 288.587 156.452 275.736C156.452 262.884 161.703 250.139 170.922 241.004C180.141 231.868 193 226.666 206.076 226.666C219.045 226.666 231.794 231.872 241.013 241.004C250.232 250.135 255.59 262.884 255.59 275.736C255.59 288.587 250.232 301.329 241.013 310.464C231.794 319.599 219.045 324.908 206.076 324.908ZM123.658 236.227C118.836 236.227 114.013 234.422 110.263 230.706L80.1478 200.332C72.753 192.892 73.608 181.64 79.8286 173.778V173.778C80.0063 173.6 80.2474 173.465 80.4247 173.287L162.243 91.0442L192.468 60.6708C199.757 53.2342 211.863 53.2342 219.258 60.6708L249.377 91.0442L331.579 173.565C338.973 181.002 338.973 192.892 331.579 200.332L301.357 230.706C297.819 234.316 292.997 236.014 288.285 236.124C288.179 236.124 288.069 236.227 287.962 236.227C283.136 236.227 278.211 234.422 274.567 230.706V230.706C236.695 192.595 175.032 192.592 137.163 230.706V230.706C133.409 234.422 128.586 236.227 123.658 236.227Z" fill="white"/>
<path d="M349.771 227.048L378.542 294.523H32.4585L61.2291 227.048L46.6872 211L0.0702579 294.523H0V357.962C0 386.639 27.7513 410 61.8256 410H126.813C160.887 410 188.638 386.639 188.638 357.962V316.276H222.362V357.962C222.362 386.639 250.113 410 284.187 410H349.174C383.249 410 411 386.639 411 357.962V294.523H410.93L364.313 211L349.771 227.048Z" fill="#FC60A8"/>
</svg>
